<svg width="130" height="35" viewBox="0 0 130 35" fill="none" xmlns="http://www.w3.org/2000/svg">
<path d="M1.12576e-09 30.8922H1.96876V30.9315C1.96876 31.2558 2.10206 31.4622 2.24561 31.59C2.61475 31.934 3.26075 31.9634 3.62989 31.9634C4.17335 31.9634 4.46046 31.9045 4.65529 31.8062C4.97316 31.6489 5.12697 31.3541 5.12697 31.1182C5.12697 30.961 5.05519 30.6956 4.62452 30.5285C4.41945 30.4499 3.88624 30.3418 3.62989 30.3025L2.59425 30.1452C1.81495 30.0273 0.902346 29.8897 0.440919 29.3983C0.276856 29.2214 0.0410157 28.8872 0.0410157 28.2975C0.0410157 27.5014 0.379396 26.9314 1.02539 26.5383C1.74317 26.1058 2.63526 26.0469 3.37354 26.0469C4.67579 26.0469 5.39357 26.2336 5.8755 26.5088C6.72658 26.9904 6.85988 27.6587 6.83937 28.1796H4.93214C4.91163 27.9339 4.80909 27.7078 4.50148 27.5506C4.1836 27.3835 3.59913 27.3639 3.35304 27.3639C3.0044 27.3639 2.61475 27.413 2.36866 27.5506C2.13282 27.6882 2.00977 27.9142 2.00977 28.1501C2.00977 28.4646 2.28663 28.5924 2.52247 28.671C2.72755 28.7398 2.99415 28.7988 3.75294 28.9167L4.57325 29.0445C5.209 29.1428 5.91652 29.2705 6.39845 29.6145C7.00344 30.047 7.12648 30.6366 7.12648 31.1182C7.12648 31.9536 6.73683 32.4745 6.28566 32.789C5.91652 33.0446 5.22951 33.3197 3.75294 33.3197C2.61475 33.3197 1.3125 33.2509 0.584474 32.5138C0.0615236 31.9929 1.12576e-09 31.3344 1.12576e-09 30.9315V30.8922Z" fill="white"/>
<path d="M8.76815 27.3344V26.1746H10.5728V27.3344H8.76815ZM8.76815 28.1305H10.5728V33.1232H8.76815V28.1305Z" fill="white"/>
<path d="M12.5032 28.1305H14.1849V28.8283C14.3489 28.6022 14.5745 28.3762 14.9026 28.2091C15.3026 28.0027 15.6922 27.9535 16.1536 27.9535C16.5433 27.9535 16.9022 28.0027 17.2303 28.1894C17.6097 28.3958 17.7738 28.6907 17.866 28.9167C18.1019 28.5727 18.389 28.3663 18.6351 28.2386C19.0657 28.0125 19.5169 27.9535 19.9886 27.9535C20.409 27.9535 21.1678 28.0027 21.66 28.4646C22.1932 28.9658 22.224 29.7423 22.224 30.2632V33.1232H20.4193V30.2435C20.4193 29.8602 20.3372 29.5457 20.1219 29.3491C20.0091 29.2509 19.7938 29.1133 19.4349 29.1133C19.0452 29.1133 18.7991 29.2607 18.6453 29.4081C18.3275 29.7128 18.2659 30.2239 18.2659 30.5384V33.1232H16.4612V30.2042C16.4612 29.9585 16.4407 29.585 16.1536 29.3295C15.9588 29.1526 15.7025 29.1133 15.4974 29.1133C15.2205 29.1133 14.9642 29.1821 14.7386 29.3786C14.3387 29.7324 14.3079 30.3025 14.3079 30.676V33.1232H12.5032V28.1305Z" fill="white"/>
<path d="M27.3283 29.074C27.0001 29.074 26.631 29.1428 26.3234 29.4573C26.0363 29.7521 25.8824 30.2042 25.8824 30.6465C25.8824 31.0494 26.0055 31.5114 26.2926 31.7964C26.4874 31.9831 26.8156 32.1797 27.359 32.1797C27.7692 32.1797 28.1075 32.101 28.3947 31.7767C28.7535 31.3738 28.7741 30.7939 28.7741 30.617C28.7741 30.1354 28.6305 29.7423 28.3947 29.4867C28.1691 29.241 27.8307 29.074 27.3283 29.074ZM24.129 28.1305H25.8517V28.7595H25.8824C26.0773 28.5138 26.3234 28.327 26.5592 28.2091C26.9899 28.0027 27.4821 27.9732 27.8512 27.9732C28.5075 27.9732 29.2662 28.042 29.8815 28.6022C30.5377 29.1919 30.6403 29.988 30.6403 30.5875C30.6403 31.2067 30.5275 32.0322 29.8815 32.6416C29.2457 33.2313 28.4767 33.2804 27.8307 33.2804C27.1232 33.2804 26.795 33.1821 26.631 33.1133C26.3541 33.0052 26.0978 32.7988 25.9337 32.5925V34.9414H24.129V28.1305Z" fill="white"/>
<path d="M32.3101 26.2434H34.1148V33.1232H32.3101V26.2434Z" fill="white"/>
<path d="M36.0247 34.8628V33.7915C36.2811 33.8701 36.4964 33.8799 36.5682 33.8799C36.7938 33.8799 37.0296 33.8308 37.1834 33.7129C37.3475 33.5851 37.5013 33.3099 37.5731 33.1133L37.6756 32.8185L35.4607 28.1305H37.2757L38.66 31.4622L39.8699 28.1305H41.5618L39.347 33.2116C39.1214 33.7227 38.9061 34.2239 38.5574 34.5384C38.096 34.961 37.5731 35.0004 37.0604 35.0004C36.6707 35.0004 36.4041 34.9807 36.0247 34.8628Z" fill="white"/>
<path d="M49.9294 27.4228C49.4474 27.4228 48.863 27.4916 48.3708 27.9535C47.776 28.5138 47.7145 29.2902 47.7145 29.6833C47.7145 30.0764 47.776 30.8529 48.3708 31.4131C48.863 31.875 49.4474 31.9438 49.9294 31.9438C50.4113 31.9438 50.9958 31.875 51.488 31.4131C52.0827 30.8529 52.1442 30.0764 52.1442 29.6833C52.1442 29.2902 52.0827 28.5138 51.488 27.9535C50.9958 27.4916 50.4113 27.4228 49.9294 27.4228ZM54.195 29.6833C54.195 30.4892 54.0309 31.4917 53.0671 32.3173C52.5236 32.7792 51.57 33.3197 49.9294 33.3197C48.2887 33.3197 47.3351 32.7792 46.7917 32.3173C45.8278 31.4917 45.6637 30.4892 45.6637 29.6833C45.6637 28.8774 45.8278 27.8749 46.7917 27.0494C47.3351 26.5874 48.2887 26.0469 49.9294 26.0469C51.57 26.0469 52.5236 26.5874 53.0671 27.0494C54.0309 27.8749 54.195 28.8774 54.195 29.6833Z" fill="white"/>
<path d="M55.9222 28.1305H57.6551V28.7398C57.8397 28.5334 58.0961 28.327 58.3832 28.1894C58.7933 27.9929 59.2342 27.9634 59.5419 27.9634C60.5262 27.9634 61.0389 28.2386 61.1722 28.327C61.849 28.7496 61.931 29.4376 61.931 30.0371V33.1232H60.1263V30.4204C60.1263 30.0175 60.0853 29.6047 59.8187 29.359C59.6854 29.2312 59.4496 29.1231 59.0907 29.1231C58.6088 29.1231 58.3114 29.3098 58.1473 29.4769C57.8807 29.7521 57.7269 30.2435 57.7269 30.8332V33.1232H55.9222V28.1305Z" fill="white"/>
<path d="M65.4634 30.0666H68.3447C68.3242 29.6637 68.1191 29.4179 67.9756 29.3C67.6679 29.0346 67.2475 29.0052 66.9092 29.0052C66.54 29.0052 66.2016 29.0445 65.894 29.2804C65.6889 29.4376 65.4941 29.6931 65.4634 30.0666ZM68.3139 31.4917H70.1289C70.0674 32.1305 69.7085 32.7399 69.001 33.0446C68.5088 33.2509 67.8833 33.3099 67.0425 33.3099C65.8633 33.3099 64.9712 33.2116 64.3047 32.5728C63.7099 32.0028 63.5869 31.3246 63.5869 30.7054C63.5869 30.1944 63.6792 29.359 64.3662 28.7201C65.084 28.0518 66.0786 27.9437 66.8989 27.9437C67.709 27.9437 68.7856 28.0715 69.4931 28.7496C70.1391 29.3688 70.2007 30.1747 70.2007 30.7742V30.9511H65.4326V30.9806C65.4326 31.4131 65.5966 31.7079 65.771 31.875C66.0786 32.1698 66.5708 32.2092 66.9194 32.2092C67.186 32.2092 67.5962 32.1895 67.8525 32.0716C68.0473 31.9831 68.2422 31.816 68.3139 31.4917Z" fill="white"/>
<path d="M78.0562 29.0641C77.7281 29.0641 77.2769 29.1231 76.9488 29.4376C76.6822 29.703 76.5181 30.1354 76.5181 30.6268C76.5181 31.1182 76.6822 31.5507 76.9488 31.816C77.2769 32.1305 77.7281 32.1895 78.0562 32.1895C78.3843 32.1895 78.8355 32.1305 79.1636 31.816C79.4302 31.5507 79.5943 31.1182 79.5943 30.6268C79.5943 30.1354 79.4302 29.703 79.1636 29.4376C78.8355 29.1231 78.3843 29.0641 78.0562 29.0641ZM81.4605 30.6268C81.4605 31.2853 81.3067 32.0716 80.5582 32.6514C79.7994 33.2411 78.733 33.3099 78.0562 33.3099C77.3795 33.3099 76.3131 33.2411 75.5543 32.6514C74.8057 32.0716 74.6519 31.2853 74.6519 30.6268C74.6519 29.9683 74.8057 29.1821 75.5543 28.6022C76.3131 28.0125 77.3795 27.9437 78.0562 27.9437C78.733 27.9437 79.7994 28.0125 80.5582 28.6022C81.3067 29.1821 81.4605 29.9683 81.4605 30.6268Z" fill="white"/>
<path d="M86.9026 28.1305V29.1919H85.5389V33.1232H83.7342V29.1919H82.637V28.1305H83.7342V27.7373C83.7342 27.128 83.9598 26.7643 84.1853 26.5579C84.6263 26.1452 85.3235 26.1157 85.7542 26.1157C86.1644 26.1157 86.4925 26.1452 86.8924 26.2238V27.2361C86.7283 27.1968 86.5232 27.1771 86.3694 27.1771C86.1336 27.1771 85.8978 27.2263 85.7542 27.3442C85.5594 27.5014 85.5389 27.7668 85.5389 27.8946V28.1305H86.9026Z" fill="white"/>
<path d="M93.6883 30.5482H95.8826L94.7752 27.9732L93.6883 30.5482ZM93.2268 31.7276L92.6013 33.1232H90.6326L93.8523 26.2434H95.7083L98.928 33.1232H96.9593L96.3338 31.7276H93.2268Z" fill="white"/>
<path d="M105.157 29.1231L108.376 26.2434H110.714L107.351 29.1231L110.909 33.1133L108.592 33.1232L106.09 30.1354L105.157 30.9413V33.1232H103.27V26.2434H105.157V29.1231Z" fill="white"/>
<path d="M112.069 27.3344V26.1746H113.873V27.3344H112.069ZM112.069 28.1305H113.873V33.1232H112.069V28.1305Z" fill="white"/>
<path d="M115.804 28.1305H117.537V28.7398C117.721 28.5334 117.977 28.327 118.265 28.1894C118.675 27.9929 119.116 27.9634 119.423 27.9634C120.408 27.9634 120.92 28.2386 121.054 28.327C121.73 28.7496 121.812 29.4376 121.812 30.0371V33.1232H120.008V30.4204C120.008 30.0175 119.967 29.6047 119.7 29.359C119.567 29.2312 119.331 29.1231 118.972 29.1231C118.49 29.1231 118.193 29.3098 118.029 29.4769C117.762 29.7521 117.608 30.2435 117.608 30.8332V33.1232H115.804V28.1305Z" fill="white"/>
<path d="M126.78 29.074C126.432 29.074 126.021 29.1526 125.714 29.4966C125.458 29.7816 125.355 30.1944 125.355 30.6268C125.355 31.0494 125.488 31.5114 125.775 31.8062C126.073 32.1109 126.432 32.1797 126.801 32.1797C127.149 32.1797 127.488 32.1207 127.785 31.8357C128.103 31.531 128.247 31.0494 128.247 30.617C128.247 30.2533 128.134 29.8209 127.898 29.5359C127.56 29.1329 127.078 29.074 126.78 29.074ZM128.277 32.5335H128.236C128.103 32.7497 127.908 32.9561 127.549 33.1035C127.17 33.2608 126.739 33.2804 126.268 33.2804C125.57 33.2804 124.791 33.2313 124.166 32.6023C123.745 32.1797 123.468 31.5114 123.468 30.6465C123.468 29.6145 123.878 28.9855 124.278 28.6219C124.945 28.0223 125.745 27.9732 126.329 27.9732C126.801 27.9732 127.129 28.0125 127.539 28.1894C127.847 28.3172 128.031 28.4646 128.195 28.7005V26.2434H130V33.1232H128.277V32.5335Z" fill="white"/>
<path d="M47.2966 17.9054C47.0284 17.8912 46.7602 17.869 46.492 17.8611C45.6636 17.8343 44.8353 17.8232 44.0085 17.7837C43.1388 17.7426 42.2692 17.6936 41.4028 17.6162C40.1253 17.5024 38.8685 17.2875 37.6687 16.8071C35.8105 16.0596 34.3188 14.8854 33.3254 13.1297C32.8287 12.2526 32.516 11.3123 32.3954 10.312C32.1288 8.09326 32.57 6.01832 33.7316 4.1093C34.4679 2.89879 35.5502 2.05648 36.8245 1.45122C37.8528 0.962908 38.9399 0.66265 40.0586 0.45721C41.0267 0.281795 42.0074 0.185396 42.9913 0.168013C44.0101 0.147469 45.0289 0.15063 46.0461 0.149049C47.3489 0.147469 48.6518 0.137987 49.9546 0.156951C50.9623 0.171174 51.97 0.210681 52.9761 0.264412C53.7918 0.308661 54.6075 0.376614 55.42 0.465111C56.6451 0.601018 57.8337 0.890214 58.9509 1.4291C60.6647 2.25718 61.8787 3.54987 62.5912 5.30718C62.9626 6.22218 63.18 7.1751 63.2816 8.15647C63.4418 9.72572 63.2514 11.2444 62.5833 12.6841C61.8057 14.3592 60.5457 15.5729 58.9112 16.4152C57.8797 16.9493 56.7609 17.3001 55.6072 17.4487C54.717 17.5625 53.822 17.6431 52.9269 17.7126C52.3049 17.7616 51.6796 17.7695 51.0544 17.7916C50.1038 17.8248 49.1533 17.8564 48.2027 17.888C48.1757 17.8912 48.1471 17.8975 48.1218 17.9038L47.2966 17.9054ZM49.4087 14.966V14.9708C50.5846 14.9708 51.759 14.9755 52.9349 14.9676C53.2792 14.966 53.6268 14.9518 53.9679 14.9091C54.8661 14.7985 55.7405 14.5852 56.5721 14.2249C57.9733 13.618 58.9874 12.6382 59.4507 11.1638C59.8586 9.86637 59.8824 8.54839 59.5602 7.22725C59.3206 6.24588 58.8525 5.38619 58.132 4.67189C57.3735 3.91967 56.4515 3.45347 55.4168 3.20063C54.0457 2.8656 52.6461 2.76288 51.2416 2.75182C49.8213 2.74076 48.3995 2.75814 46.9792 2.77394C46.2651 2.78184 45.551 2.80555 44.8368 2.82925C43.745 2.8656 42.6548 2.92881 41.5726 3.08526C40.7251 3.20853 39.892 3.38868 39.0986 3.71423C37.6354 4.31474 36.6261 5.34036 36.1866 6.8701C35.8549 8.02847 35.8263 9.2058 36.0358 10.3894C36.3405 12.1262 37.3117 13.3652 38.905 14.1174C40.0904 14.6784 41.3393 14.9613 42.6596 14.9423C43.5689 14.9297 44.4782 14.9613 45.3875 14.9644C46.7269 14.9692 48.0678 14.966 49.4087 14.966Z" fill="white"/>
<path d="M65.1521 17.9054C64.9982 17.8975 64.8442 17.888 64.6903 17.8833C64.5919 17.8801 64.4951 17.8833 64.3666 17.8833C64.4618 17.7568 64.5395 17.6525 64.6205 17.5498C67.7023 13.6259 70.7825 9.70202 73.8643 5.77653C75.01 4.3179 76.1589 2.86086 77.2904 1.39117C77.8284 0.692676 78.5234 0.278635 79.3804 0.117444C80.2643 -0.0484884 81.1482 -0.0358459 82.0337 0.137988C82.4717 0.223325 82.8018 0.45563 83.0969 0.770111C83.7492 1.46387 84.2871 2.24454 84.8552 3.00467C85.6915 4.12353 86.5421 5.23132 87.3895 6.34228C89.132 8.62899 90.8744 10.9141 92.6184 13.1992C93.7626 14.6958 94.9163 16.1829 96.0652 17.6763C96.0938 17.7126 96.1191 17.7505 96.1588 17.8043H75.0751C75.0925 17.7695 75.1116 17.7347 75.1338 17.7015C75.5543 17.15 75.9828 16.6032 76.397 16.0485C76.6493 15.7119 76.9952 15.5492 77.392 15.4796C77.6014 15.4433 77.8141 15.4243 78.0267 15.4243C82.0924 15.4196 86.1581 15.418 90.2238 15.418H90.3983L80.3135 2.41521C80.2341 2.51161 80.1596 2.59537 80.0913 2.68387C77.9379 5.43518 75.786 8.1865 73.6373 10.9394C72.0409 12.9906 70.4572 15.0561 68.8718 17.1168C68.5402 17.5467 68.1418 17.8517 67.5753 17.8864C67.5642 17.888 67.5531 17.9007 67.5404 17.907H65.1521V17.9054Z" fill="white"/>
<path d="M27.7614 0.152177C27.7249 0.207488 27.7043 0.242255 27.6805 0.273861C27.2536 0.826969 26.8251 1.3785 26.3983 1.9316C25.7809 2.73124 24.9542 3.05046 23.956 3.0394C22.4405 3.02518 20.9234 3.04098 19.4079 3.04572H19.2508C15.5263 3.04572 11.8018 3.04572 8.07732 3.0473C7.42827 3.0473 6.77923 3.06469 6.13176 3.09155C5.73504 3.10735 5.33989 3.16583 4.96379 3.30963C4.10845 3.63676 3.58635 4.37318 3.56414 5.28502C3.55303 5.7196 3.61492 6.13997 3.8228 6.52872C4.1751 7.18929 4.75908 7.51799 5.47637 7.63968C6.17302 7.75662 6.87761 7.79929 7.58379 7.79771C8.69304 7.79297 9.8023 7.79771 10.91 7.79613C12.3969 7.79297 13.8854 7.78349 15.374 7.78349C16.4356 7.78349 17.4972 7.78507 18.5573 7.79771C19.665 7.81193 20.7742 7.82141 21.8803 7.87198C23.1673 7.93045 24.4273 8.17066 25.6381 8.61947C26.8077 9.05247 27.5837 9.86475 27.936 11.0579C28.2661 12.1767 28.2851 13.3082 27.982 14.4334C27.6218 15.7704 26.7363 16.6443 25.4572 17.1389C24.2956 17.5877 23.0959 17.8469 21.8422 17.8358C21.1027 17.8295 20.3648 17.8485 19.6253 17.8516C17.5353 17.8611 15.447 17.869 13.357 17.8753C10.6085 17.8801 7.85991 17.8817 5.11138 17.8801C3.59905 17.8801 2.08831 17.8785 0.575976 17.8753H0.403002C0.42998 17.8342 0.442675 17.8105 0.458544 17.79C0.810839 17.3175 1.15679 16.8387 1.5186 16.3725C2.21843 15.4717 3.15154 15.0039 4.28936 15.0008C8.81524 14.9865 13.3395 14.9913 17.8654 14.9865C19.0492 14.985 20.2347 14.9818 21.4185 14.9755C22.1263 14.9707 22.8293 14.9123 23.4974 14.6499C24.2337 14.3592 24.7637 13.8724 24.9002 13.0633C25.0176 12.3695 24.9288 11.7058 24.4432 11.1511C24.1036 10.7639 23.6481 10.5696 23.1609 10.4384C22.5992 10.2883 22.0231 10.2424 21.4439 10.2409C20.0077 10.2377 18.5732 10.2377 17.137 10.2393C15.1851 10.2409 13.2332 10.2472 11.2797 10.2424C10.0626 10.2393 8.84539 10.2219 7.62822 10.2061C6.51897 10.1919 5.41448 10.1239 4.32427 9.89952C3.67046 9.76519 3.023 9.59926 2.40569 9.34483C1.29167 8.88654 0.564867 8.07268 0.242724 6.92222C-0.0857677 5.74331 -0.0857676 4.55492 0.272875 3.38233C0.621996 2.24767 1.39482 1.48438 2.48027 1.02293C3.37529 0.643653 4.30046 0.354457 5.27324 0.248576C5.66362 0.205908 6.05718 0.196426 6.44915 0.188524C7.26323 0.174302 8.07891 0.169561 8.893 0.16798C13.6363 0.158499 18.3796 0.150597 23.1213 0.144276C24.6146 0.142696 26.1063 0.147436 27.5995 0.149017H27.7614V0.152177Z" fill="white"/>
<path d="M114.667 7.78828L130 17.8722C129.917 17.877 129.873 17.8817 129.829 17.8817C128.35 17.8785 126.872 17.8754 125.393 17.8722C125.204 17.8722 125.014 17.8596 124.825 17.8643C124.644 17.8691 124.493 17.7932 124.349 17.7031C123.994 17.4787 123.64 17.2496 123.289 17.0173C120.255 15.0071 117.221 12.997 114.186 10.9868C113.788 10.7229 113.395 10.4527 112.996 10.1903C112.622 9.94382 112.215 9.78421 111.758 9.79527C111.328 9.80633 110.952 9.97701 110.592 10.1951C108.721 11.3313 106.85 12.466 104.979 13.5991C104.828 13.6876 104.684 13.7855 104.544 13.8898C104.052 14.266 103.819 14.7701 103.817 15.3832C103.816 16.156 103.816 16.9288 103.817 17.7016V17.8675H100.51V0.171192H103.822V9.75576C103.822 10.3563 104.324 10.7403 104.908 10.5807C104.984 10.5601 105.054 10.5159 105.122 10.4748C109.223 7.92261 113.325 5.37199 117.425 2.81979C118.65 2.05808 119.882 1.30901 121.107 0.552046C121.545 0.281814 122.013 0.147487 122.534 0.150648C124.003 0.16013 125.471 0.153809 126.94 0.153809H127.096L127.112 0.185415L114.667 7.78828Z" fill="white"/>
</svg>
