<svg width="191" height="50" viewBox="0 0 191 50" fill="none" xmlns="http://www.w3.org/2000/svg">
<path d="M0.39624 44.1311H3.27365V44.1872C3.27365 44.6506 3.46848 44.9454 3.67829 45.1279C4.2178 45.6194 5.16195 45.6615 5.70147 45.6615C6.49575 45.6615 6.91538 45.5772 7.20012 45.4368C7.6647 45.2122 7.8895 44.791 7.8895 44.454C7.8895 44.2294 7.78459 43.8503 7.15516 43.6116C6.85543 43.4993 6.07613 43.3448 5.70147 43.2887L4.18783 43.064C3.04885 42.8955 1.71505 42.699 1.04066 41.997C0.800876 41.7442 0.456186 41.2669 0.456186 40.4245C0.456186 39.2872 0.950741 38.4729 1.89489 37.9112C2.94395 37.2935 4.24778 37.2092 5.3268 37.2092C7.23009 37.2092 8.27915 37.476 8.98351 37.8691C10.2274 38.5571 10.4222 39.5118 10.3922 40.256H7.60476C7.57478 39.905 7.42492 39.582 6.97532 39.3574C6.51074 39.1187 5.65651 39.0906 5.29683 39.0906C4.78729 39.0906 4.2178 39.1608 3.85813 39.3574C3.51344 39.554 3.3336 39.8769 3.3336 40.2138C3.3336 40.6631 3.73823 40.8457 4.08292 40.958C4.38265 41.0563 4.7723 41.1405 5.88131 41.309L7.08023 41.4915C8.00939 41.6319 9.04346 41.8144 9.74783 42.3059C10.632 42.9236 10.8119 43.766 10.8119 44.454C10.8119 45.6474 10.2424 46.3916 9.58297 46.8409C9.04346 47.2059 8.03936 47.599 5.88131 47.599C4.2178 47.599 2.31451 47.5008 1.25047 46.4477C0.486159 45.7036 0.39624 44.7629 0.39624 44.1872V44.1311Z" fill="white"/>
<path d="M13.2112 39.0485V37.3918H15.8489V39.0485H13.2112ZM13.2112 40.1858H15.8489V47.3182H13.2112V40.1858Z" fill="white"/>
<path d="M18.6702 40.1858H21.128V41.1826C21.3678 40.8597 21.6975 40.5368 22.177 40.2981C22.7615 40.0032 23.331 39.933 24.0054 39.933C24.5749 39.933 25.0994 40.0032 25.579 40.27C26.1335 40.5649 26.3733 40.9861 26.5081 41.309C26.8528 40.8176 27.2725 40.5227 27.6321 40.3402C28.2616 40.0173 28.921 39.933 29.6103 39.933C30.2248 39.933 31.3338 40.0032 32.0532 40.6631C32.8325 41.3792 32.8774 42.4884 32.8774 43.2325V47.3182H30.2398V43.2044C30.2398 42.6569 30.1199 42.2076 29.8052 41.9268C29.6403 41.7864 29.3256 41.5898 28.8011 41.5898C28.2316 41.5898 27.8719 41.8004 27.6471 42.011C27.1825 42.4463 27.0926 43.1763 27.0926 43.6256V47.3182H24.455V43.1483C24.455 42.7973 24.425 42.2637 24.0054 41.8987C23.7206 41.646 23.346 41.5898 23.0463 41.5898C22.6416 41.5898 22.267 41.6881 21.9373 41.9689C21.3528 42.4743 21.3078 43.2887 21.3078 43.8222V47.3182H18.6702V40.1858Z" fill="white"/>
<path d="M40.3375 41.5336C39.858 41.5336 39.3185 41.6319 38.8689 42.0812C38.4492 42.5024 38.2244 43.1483 38.2244 43.7801C38.2244 44.3557 38.4043 45.0156 38.8239 45.4228C39.1086 45.6896 39.5882 45.9704 40.3825 45.9704C40.982 45.9704 41.4765 45.858 41.8961 45.3947C42.4207 44.8191 42.4506 43.9907 42.4506 43.738C42.4506 43.05 42.2408 42.4884 41.8961 42.1233C41.5664 41.7723 41.0719 41.5336 40.3375 41.5336ZM35.6617 40.1858H38.1795V41.0843H38.2244C38.5092 40.7333 38.8689 40.4666 39.2135 40.2981C39.843 40.0032 40.5623 39.9611 41.1018 39.9611C42.061 39.9611 43.17 40.0594 44.0692 40.8597C45.0283 41.7021 45.1782 42.8394 45.1782 43.6958C45.1782 44.5804 45.0133 45.7598 44.0692 46.6303C43.14 47.4727 42.016 47.5429 41.0719 47.5429C40.0378 47.5429 39.5582 47.4025 39.3185 47.3042C38.9138 47.1497 38.5392 46.8549 38.2994 46.5601V49.9157H35.6617V40.1858Z" fill="white"/>
<path d="M47.6188 37.49H50.2564V47.3182H47.6188V37.49Z" fill="white"/>
<path d="M53.0477 49.8034V48.273C53.4224 48.3853 53.7371 48.3993 53.842 48.3993C54.1717 48.3993 54.5164 48.3291 54.7412 48.1607C54.981 47.9781 55.2058 47.585 55.3107 47.3042L55.4606 46.883L52.2235 40.1858H54.8761L56.8993 44.9454L58.6677 40.1858H61.1405L57.9034 47.4446C57.5737 48.1747 57.2589 48.8907 56.7494 49.34C56.075 49.9438 55.3107 49.9999 54.5614 49.9999C53.9919 49.9999 53.6022 49.9718 53.0477 49.8034Z" fill="white"/>
<path d="M73.3699 39.1749C72.6656 39.1749 71.8113 39.2732 71.092 39.933C70.2228 40.7333 70.1328 41.8425 70.1328 42.4041C70.1328 42.9657 70.2228 44.0749 71.092 44.8752C71.8113 45.5351 72.6656 45.6334 73.3699 45.6334C74.0743 45.6334 74.9285 45.5351 75.6479 44.8752C76.5171 44.0749 76.607 42.9657 76.607 42.4041C76.607 41.8425 76.5171 40.7333 75.6479 39.933C74.9285 39.2732 74.0743 39.1749 73.3699 39.1749ZM79.6043 42.4041C79.6043 43.5554 79.3645 44.9875 77.9558 46.1669C77.1615 46.8268 75.7678 47.599 73.3699 47.599C70.9721 47.599 69.5783 46.8268 68.784 46.1669C67.3753 44.9875 67.1355 43.5554 67.1355 42.4041C67.1355 41.2528 67.3753 39.8207 68.784 38.6413C69.5783 37.9814 70.9721 37.2092 73.3699 37.2092C75.7678 37.2092 77.1615 37.9814 77.9558 38.6413C79.3645 39.8207 79.6043 41.2528 79.6043 42.4041Z" fill="white"/>
<path d="M82.1287 40.1858H84.6614V41.0563C84.9312 40.7614 85.3059 40.4666 85.7255 40.27C86.3249 39.9892 86.9694 39.9471 87.419 39.9471C88.8577 39.9471 89.607 40.3402 89.8018 40.4666C90.7909 41.0703 90.9108 42.0531 90.9108 42.9096V47.3182H88.2732V43.4572C88.2732 42.8815 88.2132 42.2918 87.8236 41.9408C87.6288 41.7583 87.2841 41.6038 86.7596 41.6038C86.0552 41.6038 85.6206 41.8706 85.3808 42.1093C84.9911 42.5024 84.7663 43.2044 84.7663 44.0468V47.3182H82.1287V40.1858Z" fill="white"/>
<path d="M96.0734 42.9517H100.285C100.255 42.3761 99.9549 42.025 99.7451 41.8566C99.2955 41.4775 98.6811 41.4354 98.1865 41.4354C97.647 41.4354 97.1525 41.4915 96.7029 41.8285C96.4032 42.0531 96.1184 42.4182 96.0734 42.9517ZM100.24 44.9875H102.892C102.802 45.9002 102.278 46.7707 101.244 47.2059C100.524 47.5008 99.6103 47.585 98.3814 47.585C96.6579 47.585 95.3541 47.4446 94.38 46.532C93.5107 45.7176 93.3309 44.7489 93.3309 43.8643C93.3309 43.1342 93.4658 41.9408 94.4699 41.0282C95.5189 40.0734 96.9726 39.919 98.1716 39.919C99.3555 39.919 100.929 40.1015 101.963 41.0703C102.907 41.9548 102.997 43.1061 102.997 43.9626V44.2153H96.0285V44.2575C96.0285 44.8752 96.2683 45.2964 96.523 45.5351C96.9726 45.9563 97.692 46.0125 98.2015 46.0125C98.5912 46.0125 99.1906 45.9844 99.5653 45.8159C99.8501 45.6896 100.135 45.4509 100.24 44.9875Z" fill="white"/>
<path d="M114.478 41.5196C113.999 41.5196 113.339 41.6038 112.86 42.0531C112.47 42.4322 112.23 43.05 112.23 43.752C112.23 44.454 112.47 45.0718 112.86 45.4509C113.339 45.9002 113.999 45.9844 114.478 45.9844C114.958 45.9844 115.617 45.9002 116.097 45.4509C116.487 45.0718 116.726 44.454 116.726 43.752C116.726 43.05 116.487 42.4322 116.097 42.0531C115.617 41.6038 114.958 41.5196 114.478 41.5196ZM119.454 43.752C119.454 44.6927 119.229 45.8159 118.135 46.6443C117.026 47.4867 115.468 47.585 114.478 47.585C113.489 47.585 111.931 47.4867 110.822 46.6443C109.728 45.8159 109.503 44.6927 109.503 43.752C109.503 42.8113 109.728 41.6881 110.822 40.8597C111.931 40.0173 113.489 39.919 114.478 39.919C115.468 39.919 117.026 40.0173 118.135 40.8597C119.229 41.6881 119.454 42.8113 119.454 43.752Z" fill="white"/>
<path d="M127.408 40.1858V41.7021H125.415V47.3182H122.777V41.7021H121.173V40.1858H122.777V39.6242C122.777 38.7537 123.107 38.2342 123.436 37.9393C124.081 37.3496 125.1 37.3075 125.729 37.3075C126.329 37.3075 126.808 37.3496 127.393 37.462V38.9081C127.153 38.8519 126.853 38.8239 126.628 38.8239C126.284 38.8239 125.939 38.8941 125.729 39.0625C125.445 39.2872 125.415 39.6663 125.415 39.8488V40.1858H127.408Z" fill="white"/>
<path d="M137.325 43.6397H140.532L138.914 39.9611L137.325 43.6397ZM136.651 45.3245L135.737 47.3182H132.859L137.565 37.49H140.278L144.983 47.3182H142.106L141.192 45.3245H136.651Z" fill="white"/>
<path d="M154.087 41.6038L158.792 37.49H162.209L157.294 41.6038L162.494 47.3042L159.107 47.3182L155.45 43.05L154.087 44.2013V47.3182H151.329V37.49H154.087V41.6038Z" fill="white"/>
<path d="M164.189 39.0485V37.3918H166.826V39.0485H164.189ZM164.189 40.1858H166.826V47.3182H164.189V40.1858Z" fill="white"/>
<path d="M169.648 40.1858H172.18V41.0563C172.45 40.7614 172.825 40.4666 173.244 40.27C173.844 39.9892 174.488 39.9471 174.938 39.9471C176.377 39.9471 177.126 40.3402 177.321 40.4666C178.31 41.0703 178.43 42.0531 178.43 42.9096V47.3182H175.792V43.4572C175.792 42.8815 175.732 42.2918 175.343 41.9408C175.148 41.7583 174.803 41.6038 174.278 41.6038C173.574 41.6038 173.139 41.8706 172.9 42.1093C172.51 42.5024 172.285 43.2044 172.285 44.0468V47.3182H169.648V40.1858Z" fill="white"/>
<path d="M185.69 41.5336C185.181 41.5336 184.581 41.646 184.132 42.1374C183.757 42.5445 183.607 43.1342 183.607 43.752C183.607 44.3557 183.802 45.0156 184.222 45.4368C184.656 45.8721 185.181 45.9704 185.72 45.9704C186.23 45.9704 186.725 45.8861 187.159 45.479C187.624 45.0437 187.834 44.3557 187.834 43.738C187.834 43.2185 187.669 42.6007 187.324 42.1935C186.829 41.6179 186.125 41.5336 185.69 41.5336ZM187.878 46.4758H187.819C187.624 46.7847 187.339 47.0795 186.814 47.2902C186.26 47.5148 185.631 47.5429 184.941 47.5429C183.922 47.5429 182.783 47.4727 181.869 46.5741C181.254 45.9704 180.85 45.0156 180.85 43.7801C180.85 42.3059 181.449 41.4073 182.034 40.8878C183.008 40.0313 184.177 39.9611 185.031 39.9611C185.72 39.9611 186.2 40.0173 186.799 40.27C187.249 40.4525 187.519 40.6631 187.759 41.0001V37.49H190.396V47.3182H187.878V46.4758Z" fill="white"/>
<path d="M69.522 25.5791C69.13 25.5588 68.738 25.5272 68.3461 25.5159C67.1354 25.4775 65.9247 25.4617 64.7163 25.4053C63.4453 25.3466 62.1743 25.2766 60.908 25.166C59.0409 25.0035 57.204 24.6964 55.4506 24.0101C52.7346 22.9423 50.5544 21.2649 49.1025 18.7567C48.3766 17.5038 47.9197 16.1605 47.7434 14.7314C47.3538 11.5618 47.9985 8.59759 49.6963 5.87043C50.7725 4.14112 52.3542 2.93783 54.2167 2.07318C55.7196 1.37558 57.3084 0.946642 58.9435 0.653157C60.3583 0.402565 61.7916 0.264852 63.2296 0.240019C64.7186 0.21067 66.2077 0.215185 67.6944 0.212928C69.5985 0.21067 71.5027 0.197125 73.4069 0.224216C74.8796 0.244534 76.3524 0.300974 77.8229 0.377731C79.015 0.440944 80.2072 0.53802 81.3947 0.664444C83.1852 0.858597 84.9224 1.27173 86.5552 2.04157C89.0601 3.22454 90.8344 5.07125 91.8757 7.58168C92.4185 8.88882 92.7362 10.2501 92.8847 11.6521C93.1189 13.8939 92.8406 16.0634 91.8642 18.1201C90.7277 20.5131 88.8861 22.2469 86.4972 23.4502C84.9896 24.2133 83.3545 24.7145 81.6684 24.9267C80.3672 25.0892 79.0591 25.2044 77.751 25.3037C76.8418 25.3737 75.928 25.385 75.0142 25.4166C73.6249 25.464 72.2356 25.5092 70.8463 25.5543C70.8069 25.5588 70.7651 25.5679 70.728 25.5769L69.522 25.5791ZM72.609 21.38V21.3868C74.3277 21.3868 76.044 21.3936 77.7626 21.3823C78.2659 21.38 78.7738 21.3597 79.2725 21.2988C80.5852 21.1407 81.8632 20.836 83.0785 20.3212C85.1265 19.4543 86.6085 18.0546 87.2858 15.9483C87.8819 14.0948 87.9166 12.212 87.4458 10.3246C87.0956 8.92269 86.4114 7.69456 85.3584 6.67413C84.2498 5.59952 82.9022 4.93354 81.39 4.57232C79.3861 4.09371 77.3405 3.94697 75.2879 3.93117C73.2121 3.91537 71.1339 3.9402 69.0581 3.96277C68.0144 3.97406 66.9707 4.00793 65.927 4.04179C64.3313 4.09371 62.7379 4.18402 61.1561 4.40752C59.9176 4.58361 58.7 4.84097 57.5403 5.30604C55.4019 6.16392 53.9268 7.62909 53.2843 9.81443C52.7996 11.4692 52.7578 13.1511 53.064 14.8421C53.5093 17.3232 54.9287 19.0931 57.2573 20.1677C58.9899 20.9692 60.8152 21.3733 62.7449 21.3462C64.0739 21.3281 65.4028 21.3733 66.7318 21.3778C68.6893 21.3845 70.6492 21.38 72.609 21.38Z" fill="white"/>
<path d="M95.6185 25.5791C95.3936 25.5679 95.1686 25.5543 94.9436 25.5475C94.7998 25.543 94.6583 25.5475 94.4705 25.5475C94.6096 25.3669 94.7233 25.2179 94.8416 25.0712C99.3457 19.4656 103.848 13.86 108.352 8.25219C110.026 6.16844 111.705 4.08694 113.359 1.98739C114.145 0.989537 115.161 0.398051 116.414 0.167777C117.706 -0.0692691 118.997 -0.0512084 120.292 0.197126C120.932 0.319035 121.414 0.6509 121.846 1.10016C122.799 2.09124 123.585 3.20649 124.415 4.29238C125.638 5.89075 126.881 7.47332 128.119 9.0604C130.666 12.3271 133.213 15.5916 135.762 18.8561C137.434 20.994 139.12 23.1184 140.799 25.2518C140.841 25.3037 140.878 25.3579 140.936 25.4347H110.121C110.147 25.385 110.175 25.3353 110.207 25.2879C110.822 24.5 111.448 23.7189 112.053 22.9265C112.422 22.4456 112.928 22.2131 113.508 22.1137C113.814 22.0618 114.125 22.0347 114.435 22.0347C120.377 22.028 126.32 22.0257 132.262 22.0257H132.517L117.777 3.4503C117.662 3.58802 117.553 3.70767 117.453 3.83409C114.305 7.76455 111.16 11.695 108.02 15.6277C105.687 18.5581 103.372 21.5087 101.055 24.4526C100.57 25.0667 99.9882 25.5024 99.1602 25.552C99.1439 25.5543 99.1277 25.5724 99.1091 25.5814H95.6185V25.5791Z" fill="white"/>
<path d="M40.9706 0.217396C40.9173 0.296412 40.8871 0.346079 40.8523 0.39123C40.2284 1.18138 39.6022 1.96928 38.9783 2.75944C38.0761 3.90177 36.8677 4.3578 35.4088 4.342C33.1939 4.32168 30.9766 4.34426 28.7616 4.35103H28.532C23.0885 4.35103 17.645 4.35103 12.2016 4.35329C11.2529 4.35329 10.3043 4.37812 9.35805 4.4165C8.77822 4.43908 8.2007 4.52261 7.65102 4.72805C6.40089 5.19537 5.63783 6.2474 5.60536 7.55003C5.58913 8.17086 5.67958 8.77138 5.98341 9.32675C6.49831 10.2704 7.35182 10.74 8.40016 10.9138C9.41835 11.0809 10.4481 11.1418 11.4802 11.1396C13.1015 11.1328 14.7227 11.1396 16.3416 11.1373C18.5148 11.1328 20.6903 11.1193 22.8659 11.1193C24.4175 11.1193 25.9691 11.1215 27.5185 11.1396C29.1374 11.1599 30.7586 11.1734 32.3751 11.2457C34.2561 11.3292 36.0977 11.6724 37.8673 12.3135C39.5767 12.9321 40.7108 14.0925 41.2257 15.797C41.7082 17.3954 41.736 19.0118 41.293 20.6192C40.7665 22.5291 39.4723 23.7775 37.6029 24.4842C35.9052 25.1253 34.1518 25.4956 32.3195 25.4798C31.2387 25.4707 30.1602 25.4978 29.0794 25.5023C26.0248 25.5159 22.9726 25.5272 19.918 25.5362C15.9009 25.543 11.8838 25.5452 7.86672 25.543C5.65639 25.543 3.44838 25.5407 1.23805 25.5362H0.985243C1.02467 25.4775 1.04323 25.4436 1.06642 25.4143C1.58131 24.7393 2.08693 24.0552 2.61574 23.3892C3.63856 22.1024 5.00234 21.4342 6.6653 21.4297C13.28 21.4093 19.8925 21.4161 26.5072 21.4093C28.2375 21.4071 29.97 21.4026 31.7002 21.3935C32.7346 21.3868 33.7621 21.3032 34.7386 20.9285C35.8147 20.5131 36.5894 19.8177 36.7888 18.6619C36.9605 17.6708 36.8306 16.7226 36.1209 15.9302C35.6245 15.3771 34.9589 15.0994 34.2469 14.912C33.4258 14.6975 32.5839 14.6321 31.7373 14.6298C29.6383 14.6253 27.5417 14.6253 25.4427 14.6276C22.5899 14.6298 19.7371 14.6388 16.882 14.6321C15.103 14.6276 13.3241 14.6027 11.5452 14.5801C9.92397 14.5598 8.30971 14.4627 6.71632 14.1422C5.76076 13.9503 4.81447 13.7132 3.91225 13.3498C2.28407 12.6951 1.22182 11.5324 0.75099 9.88888C0.270887 8.20473 0.270888 6.50702 0.795058 4.8319C1.30531 3.21095 2.43483 2.12054 4.02126 1.46132C5.32936 0.919505 6.68153 0.506367 8.10329 0.355109C8.67385 0.294154 9.24904 0.280609 9.82192 0.269321C11.0117 0.249002 12.2039 0.24223 13.3937 0.239972C20.3262 0.226427 27.2587 0.215139 34.1889 0.206108C36.3714 0.203851 38.5515 0.210624 40.734 0.212881H40.9706V0.217396Z" fill="white"/>
<path d="M167.987 11.1261L190.396 25.5318C190.276 25.5385 190.211 25.5453 190.146 25.5453C187.984 25.5408 185.825 25.5363 183.663 25.5318C183.387 25.5318 183.109 25.5137 182.833 25.5205C182.568 25.5272 182.348 25.4189 182.137 25.2902C181.618 24.9696 181.1 24.6423 180.588 24.3104C176.153 21.4388 171.719 18.5671 167.284 15.6955C166.702 15.3184 166.127 14.9324 165.545 14.5576C164.997 14.2055 164.403 13.9774 163.735 13.9932C163.107 14.009 162.557 14.2529 162.031 14.5644C159.296 16.1876 156.562 17.8086 153.827 19.4272C153.607 19.5537 153.396 19.6936 153.192 19.8426C152.473 20.3799 152.132 21.1001 152.13 21.9761C152.127 23.08 152.127 24.184 152.13 25.2879V25.525H147.296V0.24456H152.136V13.9368C152.136 14.7947 152.869 15.3433 153.723 15.1153C153.834 15.0859 153.936 15.0227 154.036 14.964C160.029 11.318 166.025 7.67427 172.018 4.02827C173.808 2.94012 175.608 1.87002 177.399 0.788638C178.039 0.402591 178.723 0.210696 179.484 0.215212C181.631 0.228757 183.777 0.219727 185.925 0.219727H186.152L186.175 0.264878L167.987 11.1261Z" fill="white"/>
</svg>
