<svg width="16" height="17" viewBox="0 0 16 17" fill="none" xmlns="http://www.w3.org/2000/svg">
<path fill-rule="evenodd" clip-rule="evenodd" d="M7.2 2.1C4.1072 2.1 1.6 4.6072 1.6 7.7C1.6 10.7928 4.1072 13.3 7.2 13.3C10.2928 13.3 12.8 10.7928 12.8 7.7C12.8 4.6072 10.2928 2.1 7.2 2.1ZM0 7.7C0 3.72355 3.22355 0.5 7.2 0.5C11.1764 0.5 14.4 3.72355 14.4 7.7C14.4 11.6765 11.1765 14.9 7.2 14.9C3.22355 14.9 0 11.6764 0 7.7Z" fill="white"/>
<path fill-rule="evenodd" clip-rule="evenodd" d="M11.4344 11.9344C11.7468 11.622 12.2533 11.622 12.5658 11.9344L15.7658 15.1344C16.0782 15.4468 16.0782 15.9533 15.7658 16.2658C15.4533 16.5782 14.9468 16.5782 14.6344 16.2658L11.4344 13.0658C11.122 12.7533 11.122 12.2468 11.4344 11.9344Z" fill="white"/>
</svg>
